<svg width="76" height="75" viewBox="0 0 76 75" fill="none" xmlns="http://www.w3.org/2000/svg">
<rect width="74.934" height="74.7467" transform="translate(0.533203)" fill="white"/>
<path fill-rule="evenodd" clip-rule="evenodd" d="M37.1734 13.8549L38.8919 16.1066L39.7255 16.0759L37.9246 13.6809C38.4048 13.5234 38.8226 13.2189 39.1183 12.8109C39.3957 12.3859 39.5291 11.8838 39.4991 11.378C39.5032 11.037 39.4294 10.6995 39.2832 10.391C39.137 10.0825 38.9223 9.81102 38.6552 9.59711C38.0215 9.14958 37.2476 8.94262 36.4736 9.01371L33.7363 9.02395L33.973 16.1885H34.7345L34.6625 13.9163L36.5971 13.8549C36.7891 13.8655 36.9814 13.8655 37.1734 13.8549ZM38.5911 12.1297C38.5001 12.3622 38.3565 12.5708 38.1716 12.7393C37.712 13.0978 37.1396 13.2828 36.5559 13.2613L34.6419 13.3227L34.5184 9.7404L36.4736 9.66876C37.0446 9.62038 37.615 9.76853 38.0892 10.0884C38.2837 10.2467 38.4394 10.4469 38.5446 10.6739C38.6498 10.9008 38.7017 11.1486 38.6964 11.3985C38.7181 11.647 38.6821 11.8972 38.5911 12.1297ZM31.8232 15.8505L31.9776 16.4953L27.0175 17.6519L25.371 10.6715L30.187 9.5559L30.3311 10.1905L26.2149 11.1423L26.8014 13.6192L30.4237 12.7697L30.5781 13.4043L26.9455 14.2436L27.5629 16.833L31.8232 15.8505ZM18.9499 13.1894L18.2604 13.4965L21.2447 20.0162L25.6079 18.0408L25.3404 17.4472L21.6666 19.1053L18.9499 13.1894ZM11.7782 17.7645L12.3956 17.304L16.3163 22.5239L19.5476 20.1186L19.9386 20.6406L16.1002 23.4962L11.7782 17.7645ZM10.0597 27.5494L12.4574 24.3663L14.5156 24.7961L14.9992 24.1616L7.25037 22.5035L6.80787 23.1074L10.6154 30.016L11.0888 29.3815L10.0597 27.5494ZM7.66199 23.2813L11.7782 24.2025L9.72012 26.9557L7.66199 23.2813ZM6.79834 30.0978L6.63368 30.804L8.99024 31.3976C9.23978 32.0196 9.28304 32.7045 9.11373 33.3526C9.00115 33.8868 8.75319 34.3835 8.39338 34.7957C8.04327 35.1773 7.60027 35.4628 7.10705 35.6247C6.59219 35.7685 6.04745 35.7685 5.53259 35.6247C5.00162 35.5118 4.51318 35.2529 4.12277 34.8776C3.74294 34.5255 3.46867 34.0755 3.33039 33.5777C3.18253 33.0535 3.1719 32.5003 3.29952 31.9708C3.37189 31.5631 3.53038 31.1754 3.76454 30.8331C3.99869 30.4908 4.30317 30.2018 4.65788 29.9852L4.28742 29.4223C3.87358 29.6542 3.52091 29.9804 3.25836 30.3741C2.98095 30.807 2.78239 31.2852 2.67179 31.7866C2.48701 32.4565 2.48701 33.1636 2.67179 33.8336C2.83836 34.4504 3.17734 35.0076 3.6494 35.4405C4.12881 35.8912 4.72315 36.2027 5.36794 36.3412C6.01132 36.4877 6.68215 36.463 7.31287 36.2696C7.92482 36.078 8.47271 35.7241 8.89762 35.246C9.34424 34.7397 9.64941 34.1256 9.78262 33.4651C9.895 32.9892 9.9263 32.498 9.87523 32.0118C9.83112 31.5527 9.69464 31.1072 9.4739 30.7017L6.79834 30.0978ZM44.3354 14.2028L43.965 16.649L43.2138 16.5364L43.5945 14.1312L41.4644 9.01361L42.267 9.13643L44.0885 13.4966L47.1757 9.88359L47.896 10.0371L44.3354 14.2028ZM55.4074 14.9296L54.5121 13.773L55.922 13.6093V13.1078L54.4401 13.3125L54.9649 11.941L54.5224 11.7567L53.9667 13.1078L53.1744 11.941L52.773 12.248L53.6786 13.4046L52.2173 13.5683V14.0596L53.6992 13.8652L53.1229 15.206L53.5551 15.3902L54.1211 14.0494L55.0164 15.2367L55.4074 14.9296ZM57.9487 22.0224C57.7057 21.6498 57.5542 21.2255 57.5062 20.7839L58.1134 20.5178C58.1589 20.9236 58.2923 21.3146 58.5044 21.6642C58.7343 22.0561 59.0342 22.403 59.3894 22.6877C59.7562 23.037 60.2243 23.2626 60.7272 23.3325C60.9089 23.3492 61.092 23.3216 61.2606 23.2521C61.4292 23.1825 61.5781 23.0731 61.6945 22.9333C61.7799 22.8397 61.8449 22.7295 61.8857 22.6098C61.9264 22.4901 61.9419 22.3633 61.9312 22.2373C61.8972 21.9879 61.8132 21.7477 61.6842 21.5311C61.4908 21.217 61.2813 20.9129 61.0565 20.6202C60.7825 20.2632 60.5349 19.8869 60.3156 19.4943C60.1479 19.2005 60.056 18.87 60.048 18.5322C60.0473 18.1529 60.1907 17.7874 60.4494 17.5087C60.6736 17.2386 60.9695 17.0365 61.3035 16.9253C61.6766 16.8181 62.0726 16.8181 62.4458 16.9253C62.9265 17.0817 63.3709 17.3323 63.7527 17.6622C64.0695 17.9243 64.3498 18.2272 64.5862 18.5629C64.8048 18.8742 64.9684 19.2204 65.0699 19.5864L64.4833 19.8935C64.381 19.5523 64.2284 19.2281 64.0305 18.9314C63.8334 18.6665 63.6015 18.4289 63.341 18.2252C62.9797 17.8774 62.5131 17.658 62.0135 17.6008C61.83 17.5856 61.6455 17.6159 61.4766 17.6892C61.3078 17.7624 61.1599 17.8763 61.0462 18.0205C60.9587 18.1127 60.8922 18.2226 60.8514 18.3427C60.8105 18.4629 60.7963 18.5903 60.8095 18.7165C60.8336 18.9746 60.9182 19.2234 61.0565 19.4431C61.2006 19.6786 61.4064 19.9856 61.6842 20.3541C61.9597 20.7029 62.2074 21.0724 62.4252 21.4595C62.5964 21.7524 62.6919 22.0829 62.703 22.4216C62.7037 22.8008 62.5604 23.1664 62.3017 23.4451C62.0766 23.7189 61.7762 23.9216 61.4373 24.0285C61.0648 24.1403 60.6675 24.1403 60.295 24.0285C59.811 23.8726 59.3631 23.622 58.9778 23.2915C58.5624 22.932 58.2141 22.5023 57.9487 22.0224ZM66.8491 21.4698L68.3001 23.5168L62.9386 27.2833L63.3708 27.9077L68.7426 24.1719L70.1935 26.2189L70.7286 25.8402L67.3842 21.0911L66.8491 21.4698ZM65.9955 31.93C66.1792 31.3114 66.5361 30.7576 67.0245 30.3333C67.5023 29.9077 68.0844 29.6147 68.7122 29.4838C69.3521 29.3377 70.0196 29.3624 70.6468 29.5554C71.2523 29.7545 71.795 30.1073 72.2213 30.579C72.6646 31.0862 72.9662 31.7003 73.096 32.3599C73.2664 33.0074 73.2664 33.6877 73.096 34.3352C72.9072 34.9515 72.5511 35.504 72.0669 35.9319C71.5759 36.369 70.9795 36.6722 70.3357 36.8121C69.692 36.952 69.0227 36.9238 68.3932 36.7302C67.7831 36.5408 67.238 36.1865 66.8187 35.7067C66.3774 35.2021 66.0759 34.5919 65.944 33.9361C65.7868 33.2742 65.8045 32.5831 65.9955 31.93ZM67.3435 35.1847C67.6871 35.5739 68.1323 35.8609 68.6299 36.0138C69.1427 36.1617 69.6846 36.1793 70.206 36.0648C70.7274 35.9504 71.2116 35.7076 71.6141 35.3587C71.994 35.0112 72.2745 34.5697 72.4271 34.0794C72.5706 33.5615 72.5846 33.0167 72.4681 32.4922C72.3515 31.9678 72.1078 31.4796 71.7582 31.0702C71.3995 30.6792 70.9406 30.3926 70.4307 30.2412C69.9115 30.104 69.3652 30.104 68.846 30.2412C68.322 30.3412 67.837 30.5859 67.4464 30.9474C67.0631 31.2962 66.7822 31.7419 66.6335 32.237C66.4938 32.7567 66.4938 33.3038 66.6335 33.8235C66.7462 34.3313 66.991 34.8007 67.3435 35.1847ZM67.8794 42.7893L65.2141 43.8128L65.0186 44.5804L67.8588 43.5569C67.8613 44.0623 68.037 44.5518 68.357 44.9444C68.6769 45.337 69.1219 45.6094 69.6185 45.7165C69.9445 45.822 70.2907 45.851 70.6299 45.8013C70.9691 45.7515 71.2921 45.6245 71.5737 45.43C72.1866 44.9568 72.6098 44.2818 72.7674 43.5262L73.4672 40.9368L66.5107 39.0842L66.3152 39.8109L68.4968 40.3738L67.9926 42.2264C67.9863 42.25 67.9799 42.2735 67.9735 42.2968L67.965 42.3277C67.9214 42.4854 67.8794 42.6374 67.8794 42.7893ZM69.1422 44.661C68.9455 44.5079 68.782 44.3169 68.6615 44.0994C68.4517 43.5576 68.4407 42.9596 68.6306 42.4106L69.1245 40.5683L72.6131 41.4997L72.1191 43.342C72.0086 43.9109 71.6986 44.4223 71.2444 44.7851C71.0309 44.914 70.7934 44.9985 70.5462 45.0337C70.299 45.0689 70.0472 45.0541 69.8059 44.99C69.5647 44.926 69.3389 44.814 69.1422 44.661ZM61.5191 50.4042L60.9943 50.005L64.0814 45.9622L69.8236 50.2916L66.8393 54.2117L66.3145 53.8125L68.8357 50.5066L66.7776 48.9611L64.5239 51.919L64.0094 51.5301L66.3145 48.5721L64.1843 46.9652L61.5191 50.4042ZM57.6408 58.6437L59.1124 58.5618L58.3612 59.8002L58.7934 60.0459L59.4725 58.7153L60.2546 59.9435L60.656 59.6876L59.8636 58.4697H61.3557V57.9681L59.8842 58.05L60.5839 56.7604L60.1414 56.525L59.5034 57.8965L58.7213 56.6683L58.32 56.9242L59.1124 58.1421L57.6408 58.1524V58.6437ZM45.7345 57.7429L46.9796 58.4287C47.1884 58.0298 47.4797 57.6795 47.8345 57.4008C48.1892 57.122 48.5993 56.9212 49.0378 56.8115C49.4467 56.6847 49.8769 56.6395 50.3035 56.6785C50.6737 56.7067 51.0292 56.8341 51.3326 57.0469C51.6068 57.2525 51.8085 57.5391 51.9089 57.8657C52.0329 58.2698 52.011 58.7042 51.8471 59.094C51.5889 59.6235 51.2408 60.1048 50.818 60.5166C51.1573 60.698 51.472 60.9215 51.7545 61.1819C51.9485 61.3814 52.093 61.6232 52.1764 61.8881C52.2291 62.0946 52.2324 62.3106 52.1859 62.5186C52.1395 62.7266 52.0446 62.9208 51.9089 63.0856C51.6341 63.4793 51.2242 63.7596 50.7563 63.8737C50.3454 64.0296 49.8912 64.0296 49.4803 63.8737C49.2975 63.7956 49.1355 63.6763 49.007 63.5254C48.8784 63.3744 48.7868 63.1959 48.7393 63.0038C48.6314 62.6659 48.6572 62.2999 48.8114 61.9803C49.0476 61.5149 49.3567 61.09 49.7272 60.7213L47.2472 59.3498C47.1526 59.8318 47.1317 60.3253 47.1854 60.8134H46.5577C46.5155 60.2123 46.5852 59.6085 46.7635 59.0325L45.4669 58.3161L45.7345 57.7429ZM47.525 58.7664L50.2521 60.271C50.6094 59.9315 50.9053 59.5334 51.1268 59.094C51.2398 58.7972 51.2398 58.4696 51.1268 58.1728C51.0801 57.9955 50.9898 57.8325 50.8641 57.6985C50.7383 57.5645 50.5811 57.4637 50.4064 57.4052C49.9792 57.2616 49.5164 57.2616 49.0892 57.4052C48.7401 57.4968 48.4155 57.6634 48.1381 57.8933C47.8607 58.1231 47.6374 58.4107 47.4839 58.7357L47.525 58.7664ZM51.3943 62.8605C51.4616 62.7474 51.5037 62.6213 51.5179 62.4906C51.5321 62.36 51.518 62.2279 51.4766 62.1031C51.4136 61.901 51.3003 61.7179 51.1473 61.5708C50.8854 61.3511 50.5988 61.1622 50.2932 61.0079C49.9812 61.3148 49.7082 61.6585 49.4803 62.0314C49.3559 62.264 49.3264 62.5352 49.3979 62.7888C49.4306 62.9059 49.4878 63.0148 49.5659 63.1083C49.6439 63.2018 49.741 63.2778 49.8507 63.3313C50.1127 63.4295 50.4017 63.4295 50.6637 63.3313C50.9435 63.257 51.1877 63.0866 51.3532 62.8502L51.3943 62.8605ZM33.3352 58.4695L33.1911 65.6341L33.8188 65.6443L37.0192 60.3937L40.0447 65.7467H40.6724L40.8062 58.5821H40.0755L39.9726 64.2831L37.2353 59.4316H36.8751L33.9526 64.2012L34.0658 58.4695H33.3352ZM29.6107 58.1419C30.0813 58.588 30.4181 59.1554 30.5834 59.7807C30.7488 60.406 30.7362 61.0647 30.5472 61.6833C30.3781 62.3167 30.0404 62.8931 29.5696 63.3516C29.112 63.7989 28.5384 64.1108 27.9128 64.2523C27.2528 64.4004 26.5659 64.3792 25.9164 64.1909C25.2691 64.0337 24.6736 63.7128 24.1876 63.2595C23.724 62.8191 23.3927 62.2592 23.2305 61.6423C23.0723 61.0047 23.084 60.337 23.2644 59.7052C23.4449 59.0733 23.7879 58.4993 24.2596 58.0396C24.709 57.5935 25.2705 57.2754 25.8855 57.1184C26.5421 56.9708 27.2256 56.9919 27.8716 57.1799C28.5256 57.3447 29.125 57.6763 29.6107 58.1419ZM26.1016 57.7837C25.5983 57.9003 25.1381 58.1557 24.7741 58.5206C24.3951 58.8962 24.1249 59.3665 23.9921 59.8819C23.8485 60.3941 23.8485 60.9356 23.9921 61.4479C24.1134 61.9462 24.3738 62.4003 24.7433 62.758C25.1307 63.1348 25.6091 63.4062 26.1325 63.5461C26.6558 63.6786 27.2042 63.6786 27.7276 63.5461C28.2313 63.4229 28.6931 63.1685 29.0653 62.8092C29.4424 62.4321 29.7122 61.9624 29.8474 61.4479C29.9913 60.9322 29.9913 60.3873 29.8474 59.8717C29.7157 59.3752 29.4528 58.9228 29.0859 58.5616C28.6964 58.1842 28.2136 57.9159 27.6864 57.7837C27.1679 57.6412 26.6202 57.6412 26.1016 57.7837ZM18.5896 55.8391L18.3118 53.0245L17.5811 52.5537L17.8796 55.5628C17.3861 55.4425 16.867 55.482 16.3977 55.6754C15.9356 55.8911 15.5564 56.2503 15.3172 56.6989C15.1347 56.9852 15.0196 57.3087 14.9804 57.6455C14.9412 57.9822 14.9789 58.3234 15.0908 58.6435C15.3938 59.3542 15.9409 59.9346 16.6344 60.2812L18.9807 61.622L22.5824 55.4502L21.9135 55.0715L20.7815 57.0571L19.1041 56.095C18.9379 55.9995 18.7661 55.9141 18.5896 55.8391ZM16.4713 56.5769C16.67 56.4273 16.8969 56.3191 17.1386 56.2588V56.2076C17.7329 56.1767 18.3192 56.3542 18.7954 56.7091L20.4522 57.661L18.6514 60.7315L16.9946 59.7796C16.4705 59.5218 16.0524 59.0914 15.8111 58.5617C15.7414 58.3237 15.7206 58.0743 15.75 57.8282C15.7794 57.5821 15.8585 57.3444 15.9824 57.1294C16.1063 56.9144 16.2726 56.7264 16.4713 56.5769ZM12.2206 48.2243L12.6836 47.7637L16.2339 51.3972L11.0886 56.3919L7.66182 52.871L8.13519 52.4104L11.0474 55.3889L12.8071 53.6182L10.2551 50.9775L10.749 50.5067L13.3525 53.1678L15.2666 51.3153L12.2206 48.2243ZM4.8231 42.7894L4.57613 44.2019L3.46474 43.2398L3.12515 43.6083L4.26741 44.5601L2.88846 45.0412L3.04282 45.4403L4.42177 44.9491L4.13363 46.4024L4.62758 46.4945L4.88485 45.0412L5.98594 46.0647L6.31524 45.6962L5.17298 44.7341L6.56222 44.2633L6.39757 43.813L5.02892 44.3145L5.30676 42.8611L4.8231 42.7894Z" fill="#303030"/>
<path fill-rule="evenodd" clip-rule="evenodd" d="M43.3286 26.1395L44.7248 27.1597C44.8283 27.23 44.9148 27.3209 44.9784 27.4261C45.042 27.5312 45.0812 27.6483 45.0934 27.7693C45.1055 27.8903 45.0903 28.0123 45.0487 28.1272C45.0072 28.242 44.9403 28.347 44.8527 28.4349L36.6034 37.2897C36.5166 37.3862 36.3951 37.4481 36.2629 37.4632C36.1308 37.4783 35.9975 37.4455 35.8894 37.3713L35.5696 37.1469C35.473 37.0723 35.3526 37.0317 35.2286 37.0317C35.1045 37.0317 34.9841 37.0723 34.8875 37.1469L30.4305 41.103C33.5933 40.729 36.7303 40.1643 39.8225 39.4115C44.8401 38.1429 49.5772 36.0175 53.8057 33.1377C53.8057 33.1377 55.0634 35.9329 54.1574 36.9632C50.3765 41.3602 32.7804 45.2277 26.8256 44.2958L22.8121 47.8379L22.5137 47.5217L25.7087 44.0098C25.4879 43.9203 25.3063 43.816 25.1679 43.6961C24.9029 43.0103 24.7171 42.2988 24.6137 41.5742C25.7905 41.5225 26.9653 41.4445 28.1372 41.3404L41.8365 26.2824C42.0154 26.0752 42.2725 25.944 42.5518 25.9173C42.8312 25.8906 43.1104 25.9704 43.3286 26.1395ZM27.2572 42.5754C27.2182 42.6403 27.1903 42.7112 27.1749 42.7855C27.1469 42.9201 27.1613 43.0595 27.2161 43.1863C27.271 43.313 27.3639 43.4214 27.483 43.4976C27.6022 43.5738 27.7423 43.6145 27.8857 43.6145C27.9812 43.6159 28.0761 43.5989 28.1647 43.5645C28.2533 43.5301 28.3338 43.4791 28.4013 43.4144C28.4689 43.3497 28.5223 43.2727 28.5582 43.1879C28.5941 43.1031 28.6119 43.0123 28.6104 42.9208C28.6104 42.8597 28.602 42.7992 28.5856 42.7407L28.578 42.7474C28.5324 42.6056 28.4406 42.4816 28.3159 42.3934C28.1912 42.3053 28.0403 42.2577 27.8853 42.2578C27.7134 42.2548 27.5458 42.3096 27.4118 42.4126C27.3512 42.4591 27.2992 42.5141 27.2572 42.5754Z" fill="#303030"/>
</svg>
